# xmcd CD database file
#
# Track frame offsets:
#	150
#	23952
#	49100
#	68465
#	87212
#	116935
#	138192
#	146585
#	165112
#
# Disc length: 2447 seconds
#
# Revision: 0
# Processed by: cddbd v1.5.2PL0 Copyright (c) Steve Scherf et al.
# Submitted via: CDex 1.70beta2
#
DISCID=6f098d09
DTITLE=Rogério Valente - O Que Se Vê Além Da Janela
DYEAR=2006
DGENRE=Jazz
TTITLE0=Rio Minas
TTITLE1=Manacá
TTITLE2=Jardim Secreto
TTITLE3=Espiral
TTITLE4=Divagando
TTITLE5=O Que Se Vê Além Da Janela
TTITLE6=Em Sua Companhia
TTITLE7=Segunda Visão
TTITLE8=Mutassamba
EXTD=YEAR: 2006
EXTT0=
EXTT1=
EXTT2=
EXTT3=
EXTT4=
EXTT5=
EXTT6=
EXTT7=
EXTT8=
PLAYORDER=
